<?xml version="1.0" encoding="UTF-8" standalone="no"?>
<svg
   fill-rule="evenodd"
   clip-rule="evenodd"
   image-rendering="optimizeQuality"
   shape-rendering="geometricPrecision"
   text-rendering="geometricPrecision"
   viewBox="0 0 1710 788"
   version="1.1"
   id="svg2474"
   sodipodi:docname="rozet_logo.svg"
   inkscape:version="1.2.2 (732a01da63, 2022-12-09)"
   inkscape:export-filename="..\..\Github\rozet-danismanlik\src\content\img\rozet-logo.png"
   inkscape:export-xdpi="96"
   inkscape:export-ydpi="96"
   xmlns:inkscape="http://www.inkscape.org/namespaces/inkscape"
   xmlns:sodipodi="http://sodipodi.sourceforge.net/DTD/sodipodi-0.dtd"
   xmlns="http://www.w3.org/2000/svg"
   xmlns:svg="http://www.w3.org/2000/svg">
  <defs
     id="defs2478" />
  <sodipodi:namedview
     id="namedview2476"
     pagecolor="#ffffff"
     bordercolor="#666666"
     borderopacity="1.0"
     inkscape:showpageshadow="2"
     inkscape:pageopacity="0.0"
     inkscape:pagecheckerboard="0"
     inkscape:deskcolor="#d1d1d1"
     showgrid="true"
     inkscape:zoom="0.70760234"
     inkscape:cx="823.90909"
     inkscape:cy="423.96694"
     inkscape:window-width="1920"
     inkscape:window-height="1009"
     inkscape:window-x="-8"
     inkscape:window-y="-8"
     inkscape:window-maximized="1"
     inkscape:current-layer="svg2474">
    <inkscape:grid
       type="xygrid"
       id="grid3248" />
  </sodipodi:namedview>
  <path
     d="m 319.5,118.27376 c 22.841,-0.86279 45.507,0.57036 68,4.29917 68.493,16.39224 100.993,58.26899 97.5,125.63119 -8.818,45.66479 -36.318,75.75895 -82.5,90.28249 -28.516,8.11969 -56.516,6.84619 -84,-3.82148 -10.456,-4.51699 -20.789,-9.29384 -31,-14.33055 -4.36,-1.63846 -8.86,-2.75338 -13.5,-3.3438 -9.236,0.74423 -12.903,5.52109 -11,14.33056 3.886,6.57868 9.386,11.51507 16.5,14.80823 21.169,8.86584 42.169,18.10045 63,27.70574 16.872,8.47032 31.372,19.77521 43.5,33.91565 14.333,21.65538 28.667,43.3098 43,64.96518 8.274,11.66316 17.274,22.80946 27,33.43796 12.053,13.11627 26.553,22.82952 43.5,29.13879 4.602,1.07192 9.268,1.54961 14,1.43305 v 4.77686 c -24.669,0.15954 -49.336,0 -74,-0.47769 -4.141,-1.50184 -7.808,-3.73072 -11,-6.68759 -5.191,-5.30899 -10.024,-10.88167 -14.5,-16.71898 -27.171,-39.81792 -54.837,-79.30624 -83,-118.46592 -18.009,-18.79595 -38.176,-35.19584 -60.5,-49.20156 -10.417,-7.3191 -14.584,-17.03235 -12.5,-29.1388 3.194,-5.91087 8.36,-8.77698 15.5,-8.59833 6.878,0.52832 13.545,1.96138 20,4.29917 15.428,8.30981 31.761,14.36017 49,18.15203 40.67,4.53705 70.837,-10.27118 90.5,-44.42472 19.8,-38.57307 19.134,-76.78788 -2,-114.64443 -21.69,-29.55916 -51.523,-45.95904 -89.5,-49.20157 -35.58,-4.14917 -70.08,-0.16814 -103.5,11.94213 -0.961,115.60936 -0.628,231.20916 1,346.79941 0.124,14.6229 3.791,28.31622 11,41.08092 7.188,8.07766 16.354,11.58004 27.5,10.50907 v 4.77686 h -118 v -4.77686 c 14.786,1.29835 25.286,-4.43387 31.5,-17.19666 5.177,-15.19325 7.844,-30.79827 8,-46.81314 0.667,-91.07832 0.667,-182.15759 0,-273.2359 0.344,-18.07656 -2.656,-35.59137 -9,-52.54537 -6.821,-10.98293 -16.987,-16.07792 -30.5,-15.28592 v -4.77685 c 28.015,0.25126 56.015,-0.22643 84,-1.43306 25.48,-2.44097 50.813,-4.8294 76,-7.16528 z"
     opacity="0.962"
     id="path2434"
     style="stroke-width:0.97743" />
  <path
     d="m 1514.5,120.5 c 1.97,-0.239 3.8,0.094 5.5,1 0.5,34.665 0.67,69.332 0.5,104 10.67,-0.167 21.34,0 32,0.5 1.33,1.667 1.33,3.333 0,5 -10.66,0.5 -21.33,0.667 -32,0.5 0.26,81.196 -0.07,162.196 -1,243 0.13,12.681 0.63,25.348 1.5,38 2.15,17.824 10.65,21.657 25.5,11.5 4.29,-4.773 8.46,-9.606 12.5,-14.5 1.73,0.446 3.23,1.279 4.5,2.5 -12.97,24.149 -32.97,33.816 -60,29 -7.74,-2.744 -13.24,-7.911 -16.5,-15.5 -1.74,-4.554 -3.07,-9.221 -4,-14 -1.48,-93.314 -1.98,-186.647 -1.5,-280 h -40 v -6 c 32.57,0.474 54.41,-14.526 65.5,-45 5.94,-19.555 8.44,-39.555 7.5,-60 z"
     opacity="0.946"
     id="path2436" />
  <path
     d="m 1257.5,231.47018 c 35.7,-2.69423 69.37,3.81096 101,19.51652 46.77,29.79934 58.93,69.30839 36.5,118.52714 -11.39,16.77945 -27.55,26.77571 -48.5,29.9888 -30.26,3.82047 -59.26,-0.30465 -87,-12.37633 -10.67,-5.07715 -21.33,-10.15526 -32,-15.23241 -12.71,-6.03964 -26.05,-8.26167 -40,-6.66417 -2.74,0.76447 -5.41,1.7165 -8,2.85607 -2.93,2.34294 -5.93,4.40502 -9,6.18817 0.89,-15.62083 9.22,-25.93508 25,-30.94082 17.98,-5.00194 35.31,-3.41492 52,4.76012 16.51,9.684 32.17,20.47331 47,32.36886 6.34,4.28697 13,8.09507 20,11.4243 22,7.08783 38.5,0.89967 49.5,-18.56449 15.24,-37.00427 10.58,-71.5942 -14,-103.77075 -24.58,-25.46953 -55.08,-36.1008 -91.5,-31.89285 -36.23,5.92731 -62.07,24.80883 -77.5,56.64551 -21.09,47.47273 -24.42,96.02602 -10,145.65986 11.35,34.59565 33.85,60.14134 67.5,76.63803 43.76,16.03306 85.1,11.58996 124,-13.32835 17.11,-12.42012 29.78,-28.12854 38,-47.12525 2.97,-0.67594 5.63,0.1171 8,2.38006 -27.15,53.95889 -72.32,81.40959 -135.5,82.35019 -74.64,-2.69233 -122.31,-38.23524 -143,-106.62683 -12.62,-48.25245 -6.62,-94.26669 18,-138.04366 25.34,-38.53989 61.84,-60.1185 109.5,-64.73772 z"
     opacity="0.95"
     id="path2440"
     style="stroke-width:0.975718" />
  <path
     d="m 853.5,231.50071 c 77.336,-0.33489 154.67,0 232,1.00568 -64.08,101.07367 -128.417,201.97637 -193,302.70911 28.994,1.17363 57.994,1.34057 87,0.50284 22.17,-1.46628 43.17,-7.16545 63,-17.09653 17.12,-10.0085 28.45,-24.59084 34,-43.74699 1.55,-0.95741 3.21,-1.2923 5,-1.00568 v 67.38043 c -79.67,0.33489 -159.336,0 -239,-1.00568 64.458,-100.65027 128.791,-201.38503 193,-302.20627 -26.33,-0.67079 -52.667,-0.67079 -79,0 -24.201,1.05495 -46.867,7.42391 -68,19.10788 -15.697,10.24686 -25.697,24.4943 -30,42.74132 h -6 c -0.322,-22.87113 0.011,-45.66583 1,-68.38611 z"
     opacity="0.954"
     id="path2442"
     style="stroke-width:1.00284" />
  <path
     fill="#cb6be6"
     d="M167.5 623.5h1384v12c-461.33.167-922.667 0-1384-.5-1.3-3.832-1.3-7.666 0-11.5Z"
     opacity=".875"
     id="path2450" />
  <path
     d="M769.91439 652.54467c5.511-.295 10.844.538 16 2.5 4.667 2.84 7 7.006 7 12.5-5.323.92-9.657-.58-13-4.5-3.948-2.075-7.781-1.908-11.5.5-.72 1.612-.554 3.112.5 4.5 6.742 2.136 13.409 4.469 20 7 6.667 6.667 6.667 13.333 0 20-4.111 1.891-8.444 2.891-13 3 7.21 1.091 8.877 4.758 5 11-4.2 1.367-8.533 1.867-13 1.5-.299-2.104.034-4.104 1-6 2.745 1.353 5.412 1.186 8-.5-2.254-1.651-4.588-1.818-7-.5-1.078-1.975-.745-3.808 1-5.5-8.612-1.777-13.612-6.943-15-15.5 3.35-.165 6.683.002 10 .5 2.004 4.17 5.337 6.003 10 5.5 3.504.568 6.17-.599 8-3.5-.667-1.333-1.667-2.333-3-3-6.108-1.693-12.108-3.693-18-6-7.51-6.366-7.843-13.033-1-20 2.658-1.478 5.325-2.645 8-3.5z"
     opacity=".864"
     id="path2452" />
  <path
     d="M399.91439 653.54467c7.341-.166 14.674 0 22 .5 11.92 1.921 18.254 8.921 19 21-.413 10.747-5.747 17.747-16 21-8.327.5-16.66.666-25 .5zm10 10c5.605-.592 10.939.241 16 2.5 6.972 7.44 6.306 14.107-2 20-4.585 1.225-9.252 1.725-14 1.5z"
     opacity=".902"
     id="path2454" />
  <path
     d="M509.91439 653.54467c3.398-.32 6.732.013 10 1 6 13.667 12 27.333 18 41-7.243 2.715-11.91.549-14-6.5-6.359-.831-12.693-.664-19 .5-.714 2.311-1.714 4.478-3 6.5-3.317.498-6.65.665-10 .5 5.72-14.442 11.72-28.775 18-43zm4 14c2.085 3.324 4.085 6.824 6 10.5-3.382.824-6.716.657-10-.5 1.9-3.129 3.233-6.463 4-10z"
     opacity=".89"
     id="path2456" />
  <path
     d="M590.91439 653.54467c3.35-.165 6.683.002 10 .5 6.807 9.108 13.974 17.942 21.5 26.5.5-8.994.666-17.994.5-27h10v43c-3.35.165-6.683-.002-10-.5-7.167-8.5-14.333-17-21.5-25.5-.5 8.66-.666 17.327-.5 26h-10z"
     opacity=".882"
     id="path2458" />
  <path
     d="M690.91439 653.54467h10v43h-10z"
     opacity=".91"
     id="path2460" />
  <path
     d="M848.91439 653.54467c3.277-.284 6.443.049 9.5 1 5.248 9.498 10.748 18.831 16.5 28 5.793-9.417 11.459-18.917 17-28.5 2.646-.497 5.313-.664 8-.5v43h-10c.166-7.008 0-14.008-.5-21-3.333 6-6.667 12-10 18-2.655 3.554-5.655 3.887-9 1-3.414-6.497-7.081-12.83-11-19-.5 6.992-.666 13.992-.5 21h-10z"
     opacity=".885"
     id="path2462" />
  <path
     d="M970.91439 653.54467c3.606-.289 7.106.044 10.5 1 6.171 13.851 12.337 27.684 18.5 41.5-3.667.667-7.333.667-11 0-1.286-2.022-2.286-4.189-3-6.5-6.307-1.164-12.641-1.331-19-.5-2.09 7.049-6.757 9.215-14 6.5 6.563-13.789 12.563-27.789 18-42zm5 14c1.647 3.229 3.314 6.563 5 10-3.284 1.157-6.618 1.324-10 .5 1.959-3.384 3.625-6.884 5-10.5z"
     opacity=".89"
     id="path2464" />
  <path
     d="M1052.9144 653.54467c3.398-.32 6.732.013 10 1 6.64 8.479 13.48 16.812 20.5 25 .5-8.66.67-17.327.5-26h10v43c-3.4.32-6.73-.013-10-1-6.64-8.479-13.48-16.812-20.5-25-.5 8.66-.666 17.327-.5 26h-10z"
     opacity=".895"
     id="path2466" />
  <path
     d="M1151.9144 653.54467h10v34h25v9h-35z"
     opacity=".933"
     id="path2468" />
  <path
     d="M1240.9144 653.54467h10v43h-10z"
     opacity=".91"
     id="path2470" />
  <path
     d="M1308.9144 653.54467h10c-.17 5.676 0 11.343.5 17 4.83-5.5 9.67-11 14.5-16.5 4.33-.667 8.67-.667 13 0l-18 21c6.33 7 12.67 14 19 21-4.7.828-9.37.662-14-.5-4.83-5.667-9.67-11.333-14.5-17-.5 5.991-.67 11.991-.5 18h-10z"
     opacity=".885"
     id="path2472" />
  <path
     fill="#010001"
     opacity="1"
     stroke="none"
     d="m 832.51847,335.16944 c 0,70.33333 -0.032,140.1667 0.0965,209.99979 0.006,3.4245 -0.6724,4.09964 -4.09656,4.0957 -101.99983,-0.11755 -203.99986,-0.11755 -305.99971,0 -3.42387,0.004 -4.09966,-0.67123 -4.09572,-4.09552 0.11755,-101.99983 0.11755,-203.99986 10e-6,-305.99971 -0.004,-3.42375 0.67106,-4.09973 4.09544,-4.09578 101.99984,0.11758 203.99987,0.11757 305.9997,5e-5 3.42365,-0.004 4.11802,0.66825 4.09989,4.09579 -0.16834,31.83251 -0.0996,63.66628 -0.0996,95.99968 z"
     id="path3065"
     style="fill:#ffffff" />
  <path
     fill="#010001"
     opacity="1"
     stroke="none"
     d="m 832.46072,326.08268 c 0,70.33331 -0.0302,140.16669 0.0964,209.99978 0.008,3.42451 -0.67238,4.09965 -4.09655,4.09568 -101.99982,-0.11754 -203.99985,-0.11754 -305.9997,0 -3.42388,0.004 -4.0997,-0.6712 -4.09573,-4.09549 0.11755,-101.99985 0.11755,-203.99986 0,-305.99971 -0.004,-3.42376 0.67106,-4.09976 4.09546,-4.09579 101.99981,0.11754 203.99985,0.11754 305.9997,3e-5 3.42365,-0.004 4.11802,0.66826 4.09988,4.0958 -0.16819,31.83251 -0.0994,63.6663 -0.0994,95.9997 z"
     id="path3065-7"
     style="fill:#ffffff;stroke-width:0.999999" />
  <path
     fill="#cd41b8"
     opacity="1"
     stroke="none"
     d="m 829.33415,375.24923 c 0.52947,66.96367 -27.94186,116.81417 -87.22198,147.10693 -75.04958,38.35109 -170.00923,4.79497 -206.18604,-71.54725 -36.71788,-77.48406 -6.22507,-167.55119 69.90656,-206.48425 76.86172,-39.30637 173.64352,-5.25162 209.37506,73.60316 8.20429,18.1059 12.74683,37.06443 14.1264,57.32141 z"
     id="path3067"
     style="stroke-width:0.999999" />
  <path
     fill="#0C040B"
     opacity="1"
     stroke="none"
     d="m 570.94557,279.56705 c 31.09433,-30.6192 68.25577,-45.10008 111.40127,-43.35609 58.75427,2.37494 111.98624,42.70363 130.85436,98.43265 26.61607,78.61335 -14.09163,161.94331 -92.99479,188.00395 -75.27587,24.8626 -155.2921,-14.46123 -181.95515,-87.55268 -21.0785,-57.78252 -9.24597,-109.96982 32.69431,-155.52783 z"
     id="path3069"
     style="fill:#ffffff;stroke-width:0.999999" />
  <path
     fill="#cc41b7"
     opacity="1"
     stroke="none"
     d="m 766.64932,274.87878 c 33.86272,30.10624 50.56214,67.54953 49.70283,112.47099 -1.23984,64.8093 -48.96824,121.67728 -112.50425,134.63025 -75.19816,15.33056 -148.01477,-30.68481 -166.34435,-105.11879 -18.02237,-73.18636 24.44565,-148.4665 96.31669,-169.58657 48.80138,-14.34082 93.07469,-4.53105 132.82908,27.60412 z"
     id="path3071"
     style="stroke-width:0.999999" />
  <path
     fill="#020102"
     opacity="1"
     stroke="none"
     d="m 600.24008,464.46619 c -8.46735,-4.84301 -12.27394,-11.70312 -11.83385,-21.22057 0.37644,-8.14409 -0.0113,-16.32087 0.11339,-24.48049 0.059,-3.84643 -1.64179,-5.51188 -5.38451,-5.43576 -2.83037,0.0575 -5.66305,0.0265 -8.49441,0.002 -5.0832,-0.0427 -5.57397,-0.72284 -3.23452,-5.45817 2.79783,-5.66317 5.5409,-11.39104 8.85343,-16.75374 5.40012,-8.74227 7.79467,-17.8865 7.488,-28.30673 -1.65687,-56.30408 50.52586,-93.22307 94.36415,-93.16476 46.74576,0.0624 84.34454,29.47843 94.89921,75.1651 9.29428,40.23087 -4.99434,77.93703 -38.66683,101.57514 -2.95144,2.0719 -4.02067,4.32008 -3.98332,7.84517 0.16063,15.15549 -0.004,30.31434 0.13379,45.47032 0.0265,2.87762 -0.81267,4.39782 -3.50566,5.62277 -26.46633,12.03817 -53.95552,14.89545 -82.4456,9.70639 -3.59538,-0.65488 -4.84172,-2.18476 -4.75835,-5.94289 0.25852,-11.65361 -0.045,-23.31912 0.15988,-34.97488 0.0839,-4.78375 -1.75151,-6.54731 -6.48937,-6.38721 -7.4868,0.25285 -14.99358,-0.10281 -22.48192,0.12585 -5.14099,0.15685 -9.91824,-0.7248 -14.73362,-3.38774 z"
     id="path3073"
     style="fill:#ffffff;stroke-width:0.999999" />
  <path
     fill="#030103"
     opacity="1"
     stroke="none"
     d="m 594.43397,311.06696 c -9.19396,14.58096 -15.0847,30.09154 -13.84248,47.00625 1.25904,17.14378 -7.52341,30.18478 -14.8628,44.03183 -1.89509,3.5754 -3.54149,7.17944 -3.24718,11.35457 0.35867,5.0891 2.85543,7.45308 7.94317,7.554 10.48728,0.20787 10.48626,0.20787 10.48773,10.83231 6.8e-4,4.83262 -0.11112,9.66867 0.0302,14.49717 0.45668,15.48329 14.01959,28.73987 29.51127,28.87941 7.33168,0.0661 14.66729,0.13228 21.99526,-0.045 2.94818,-0.0714 4.11651,0.63806 4.04908,3.85429 -0.20258,9.661 -0.20938,19.33179 -0.008,28.99279 0.0794,3.77265 -1.53294,3.69192 -4.20235,2.70853 -44.84553,-16.52096 -74.84719,-47.3472 -86.96353,-93.69906 -17.14711,-65.59741 15.19129,-130.6664 77.21946,-157.93996 64.51529,-28.3671 143.11041,1.26724 173.11506,65.27308 29.11363,62.10512 9.0833,134.35185 -47.53028,171.39829 -1.64757,1.07811 -3.36699,2.04631 -4.93535,2.99471 -1.52579,-0.61807 -1.12236,-1.78152 -1.12493,-2.66589 -0.0382,-13.16459 0.0994,-26.33148 -0.11793,-39.49263 -0.0548,-3.32507 1.86611,-4.6546 4.015,-6.24903 22.18631,-16.46173 35.61577,-38.35102 39.99722,-65.59805 7.94465,-49.40545 -19.30042,-98.31791 -64.1659,-115.59133 -46.87677,-18.04777 -98.98065,-1.00823 -127.36453,41.90362 z"
     id="path3075"
     style="fill:#ffffff;stroke-width:0.999999" />
  <path
     fill="#d544bf"
     opacity="1"
     stroke="none"
     d="m 648.4935,437.12218 c -27.853,-14.94841 -43.19622,-37.84974 -43.83575,-69.14378 -0.63073,-30.86343 13.19301,-54.63035 39.90905,-70.07357 48.6771,-28.13779 111.33604,5.04438 115.98539,61.09198 3.96578,47.80747 -32.84606,87.25179 -80.44676,86.01948 -10.92729,-0.28271 -21.39299,-2.95382 -31.61193,-7.89411 z"
     id="path3077"
     style="stroke-width:0.999999" />
  <path
     fill="#060205"
     opacity="1"
     stroke="none"
     d="m 722.64999,368.92835 c -2.02228,22.22517 -19.47005,38.11034 -40.81191,37.60324 -21.12272,-0.50188 -38.05092,-17.06555 -39.23856,-38.39358 -1.19237,-21.41155 16.09285,-40.6055 37.77301,-41.94413 21.62812,-1.33546 41.0058,15.7508 42.24571,37.27116 0.0956,1.66077 0.0404,3.33018 0.0302,5.46331 z"
     id="path3079"
     style="fill:#ffffff;stroke-width:0.999999" />
  <path
     fill="#d544bf"
     opacity="1"
     stroke="none"
     d="m 656.08412,379.23618 c -6.19314,-15.27417 -1.49696,-30.61561 11.45219,-38.30351 12.41696,-7.37193 28.16723,-4.75956 37.6131,6.23857 10.99567,12.80262 9.05515,32.0827 -4.29218,42.64505 -13.05657,10.33221 -32.19466,7.6275 -42.02751,-5.97162 -0.96964,-1.34101 -1.72441,-2.83736 -2.7456,-4.60849 z"
     id="path3081"
     style="stroke-width:0.999999" />
</svg>
